<svg width="26" height="26" viewBox="0 0 26 26" fill="none" xmlns="http://www.w3.org/2000/svg">
<path d="M24.1394 22.9856L18.8581 17.7044H18.8012C20.4291 15.785 21.2517 13.3106 21.097 10.7987C20.9423 8.28677 19.8223 5.93196 17.9713 4.22684C16.1203 2.52172 13.6817 1.59838 11.1656 1.64997C8.64942 1.70156 6.25068 2.72407 4.47113 4.50363C2.69157 6.28319 1.66906 8.68192 1.61747 11.1981C1.56588 13.7142 2.48922 16.1528 4.19434 18.0038C5.89946 19.8548 8.25427 20.9748 10.7662 21.1295C13.2781 21.2842 15.7525 20.4616 17.6719 18.8337C17.6719 18.8337 17.6719 18.8744 17.6719 18.8906L22.9531 24.1719C23.0286 24.248 23.1185 24.3085 23.2175 24.3497C23.3165 24.391 23.4227 24.4122 23.53 24.4122C23.6372 24.4122 23.7434 24.391 23.8425 24.3497C23.9415 24.3085 24.0313 24.248 24.1069 24.1719C24.1902 24.0981 24.2574 24.008 24.3045 23.9072C24.3515 23.8064 24.3774 23.697 24.3804 23.5858C24.3835 23.4746 24.3637 23.3639 24.3222 23.2607C24.2807 23.1574 24.2185 23.0638 24.1394 22.9856ZM11.375 19.5C9.76801 19.5 8.19712 19.0235 6.86098 18.1307C5.52483 17.2379 4.48342 15.9689 3.86846 14.4843C3.2535 12.9996 3.0926 11.366 3.4061 9.78988C3.71961 8.21378 4.49344 6.76604 5.62974 5.62974C6.76604 4.49344 8.21378 3.71961 9.78988 3.4061C11.366 3.0926 12.9996 3.2535 14.4843 3.86846C15.9689 4.48343 17.2379 5.52483 18.1307 6.86098C19.0235 8.19713 19.5 9.76801 19.5 11.375C19.5 12.442 19.2898 13.4985 18.8815 14.4843C18.4732 15.4701 17.8747 16.3658 17.1202 17.1202C16.3658 17.8747 15.4701 18.4732 14.4843 18.8815C13.4985 19.2898 12.442 19.5 11.375 19.5Z" fill="white"/>
</svg>
