<svg width="21" height="21" viewBox="0 0 21 21" fill="none" xmlns="http://www.w3.org/2000/svg">
<path d="M18.375 5.25C19.8253 5.25 21 4.07531 21 2.625C21 1.17469 19.8253 0 18.375 0C16.9247 0 15.75 1.17469 15.75 2.625C15.75 2.814 15.7723 2.99644 15.8091 3.17362L4.59506 8.78194C4.11337 8.23069 3.41381 7.875 2.625 7.875C1.17469 7.875 0 9.04969 0 10.5C0 11.9503 1.17469 13.125 2.625 13.125C3.41381 13.125 4.11337 12.7693 4.59506 12.2181L15.8104 17.8251C15.7723 18.0036 15.75 18.186 15.75 18.375C15.75 19.8253 16.9247 21 18.375 21C19.8253 21 21 19.8253 21 18.375C21 16.9247 19.8253 15.75 18.375 15.75C17.5862 15.75 16.8866 16.1057 16.4049 16.6569L5.19094 11.0486C5.22769 10.8714 5.25 10.689 5.25 10.5C5.25 10.311 5.22769 10.1286 5.19094 9.95138L16.4062 4.34438C16.8866 4.89431 17.5862 5.25 18.375 5.25Z" fill="white"/>
</svg>
